<svg viewBox="0 0 24 24" xmlns="http://www.w3.org/2000/svg">
<path d="M22.391,5.976C21.318,4.138 19.862,2.682 18.024,1.609C16.185,0.536 14.178,0 12,0C9.823,0 7.815,0.536 5.977,1.609C4.138,2.682 2.683,4.138 1.61,5.976C0.536,7.815 0,9.823 0,12C0,14.177 0.537,16.185 1.609,18.023C2.682,19.862 4.138,21.318 5.977,22.391C7.815,23.464 9.823,24 12,24C14.177,24 16.185,23.464 18.024,22.391C19.862,21.318 21.318,19.862 22.391,18.023C23.464,16.185 24,14.177 24,12C24,9.823 23.464,7.815 22.391,5.976ZM10.172,3.657C10.172,3.524 10.215,3.414 10.3,3.329C10.386,3.243 10.496,3.2 10.629,3.2L13.372,3.2C13.505,3.2 13.615,3.243 13.7,3.329C13.786,3.414 13.829,3.524 13.829,3.657L13.829,5.943C13.829,6.076 13.786,6.186 13.7,6.271C13.615,6.357 13.505,6.4 13.372,6.4L10.629,6.4C10.496,6.4 10.386,6.357 10.3,6.271C10.215,6.186 10.172,6.076 10.172,5.943L10.172,3.657ZM15.657,18.743C15.657,18.876 15.614,18.986 15.529,19.071C15.444,19.157 15.334,19.2 15.2,19.2L8.8,19.2C8.667,19.2 8.557,19.157 8.472,19.071C8.386,18.986 8.343,18.876 8.343,18.743L8.343,16.457C8.343,16.324 8.386,16.214 8.472,16.129C8.557,16.043 8.667,16 8.8,16L10.172,16L10.172,11.429L8.8,11.429C8.667,11.429 8.557,11.386 8.472,11.3C8.386,11.215 8.343,11.105 8.343,10.972L8.343,8.686C8.343,8.553 8.386,8.443 8.472,8.357C8.557,8.272 8.667,8.229 8.8,8.229L13.372,8.229C13.505,8.229 13.615,8.272 13.7,8.357C13.786,8.443 13.829,8.553 13.829,8.686L13.829,16L15.2,16C15.334,16 15.443,16.043 15.529,16.129C15.614,16.214 15.657,16.324 15.657,16.457L15.657,18.743Z" fill="currentColor"/>
</svg>
