<svg viewBox="0 0 16 16" xmlns="http://www.w3.org/2000/svg">
<path d="M8,0C12.415,0 16,3.585 16,8C16,12.415 12.415,16 8,16C3.585,16 0,12.415 0,8C0,3.585 3.585,0 8,0ZM6.675,13.081C6.675,12.666 6.785,12.352 7.004,12.138C7.222,11.919 7.534,11.81 7.938,11.81C8.336,11.81 8.642,11.922 8.855,12.147C9.069,12.371 9.175,12.683 9.175,13.081C9.175,13.479 9.066,13.797 8.847,14.032C8.634,14.262 8.331,14.377 7.938,14.377C7.539,14.377 7.228,14.265 7.004,14.041C6.785,13.816 6.675,13.496 6.675,13.081ZM8.732,10.396L7.161,10.396L6.692,1.827L9.192,1.827L8.732,10.396Z" fill-rule="evenodd" fill="currentColor"/>
</svg>
