<svg viewBox="0 0 21 24" xmlns="http://www.w3.org/2000/svg">
<path d="M20.4375 7.5H0.5625C0.253125 7.5 0 7.24687 0 6.9375V5.25C0 4.00781 1.00781 3 2.25 3H4.5V0.5625C4.5 0.253125 4.75313 0 5.0625 0H6.9375C7.24687 0 7.5 0.253125 7.5 0.5625V3H13.5V0.5625C13.5 0.253125 13.7531 0 14.0625 0H15.9375C16.2469 0 16.5 0.253125 16.5 0.5625V3H18.75C19.9922 3 21 4.00781 21 5.25V6.9375C21 7.24687 20.7469 7.5 20.4375 7.5ZM0.5625 9H20.4375C20.7469 9 21 9.25313 21 9.5625V21.75C21 22.9922 19.9922 24 18.75 24H2.25C1.00781 24 0 22.9922 0 21.75V9.5625C0 9.25313 0.253125 9 0.5625 9ZM6 18.5625C6 18.2531 5.74687 18 5.4375 18H3.5625C3.25312 18 3 18.2531 3 18.5625V20.4375C3 20.7469 3.25312 21 3.5625 21H5.4375C5.74687 21 6 20.7469 6 20.4375V18.5625ZM6 12.5625C6 12.2531 5.74687 12 5.4375 12H3.5625C3.25312 12 3 12.2531 3 12.5625V14.4375C3 14.7469 3.25312 15 3.5625 15H5.4375C5.74687 15 6 14.7469 6 14.4375V12.5625ZM12 18.5625C12 18.2531 11.7469 18 11.4375 18H9.5625C9.25313 18 9 18.2531 9 18.5625V20.4375C9 20.7469 9.25313 21 9.5625 21H11.4375C11.7469 21 12 20.7469 12 20.4375V18.5625ZM12 12.5625C12 12.2531 11.7469 12 11.4375 12H9.5625C9.25313 12 9 12.2531 9 12.5625V14.4375C9 14.7469 9.25313 15 9.5625 15H11.4375C11.7469 15 12 14.7469 12 14.4375V12.5625ZM18 18.5625C18 18.2531 17.7469 18 17.4375 18H15.5625C15.2531 18 15 18.2531 15 18.5625V20.4375C15 20.7469 15.2531 21 15.5625 21H17.4375C17.7469 21 18 20.7469 18 20.4375V18.5625ZM18 12.5625C18 12.2531 17.7469 12 17.4375 12H15.5625C15.2531 12 15 12.2531 15 12.5625V14.4375C15 14.7469 15.2531 15 15.5625 15H17.4375C17.7469 15 18 14.7469 18 14.4375V12.5625Z" fill="currentColor"/>
</svg>
