<svg height="36" viewBox="0 0 43 36" xmlns="http://www.w3.org/2000/svg">
<path d="M0 11.0863C0 4.96271 5.40597 0 11.375 0C17.3455 0 22.75 4.96271 22.75 11.0863C22.75 16.6112 18.7328 23.103 13.2138 32.0215C12.6174 32.9854 12.0034 33.9776 11.375 35C10.7466 33.9776 10.1326 32.9854 9.53618 32.0215C4.01724 23.103 0 16.6112 0 11.0863ZM7.10938 11.6667C7.10938 14.0831 9.01895 16.0417 11.375 16.0417C13.731 16.0417 15.6406 14.0831 15.6406 11.6667C15.6406 9.25021 13.731 7.29167 11.375 7.29167C9.01895 7.29167 7.10938 9.25021 7.10938 11.6667ZM18.1504 27.8352H23.8379V29.5916C23.8379 29.6089 23.8401 29.6252 23.8424 29.6415L23.8424 29.6416C23.8436 29.6497 23.8447 29.6579 23.8456 29.6662H22.2519C21.8814 29.6662 21.5806 29.9669 21.5806 30.3374C21.5806 30.708 21.8814 31.009 22.2519 31.009H33.1135C33.484 31.009 33.7847 30.7083 33.7847 30.3374C33.7847 29.9669 33.484 29.6662 33.1135 29.6662H31.5199C31.5203 29.6616 31.5208 29.6571 31.5214 29.6526C31.522 29.6481 31.5227 29.6436 31.5233 29.6391C31.5255 29.6236 31.5278 29.6079 31.5278 29.5916V27.8352H42.2673C42.6715 27.8352 42.9997 27.5075 42.9997 27.1036V6.7225C42.9985 6.31806 42.6709 5.99023 42.2658 5.99023H23.4987C23.8241 6.54206 24.1027 7.12126 24.3285 7.7231H40.1914C40.5956 7.7231 40.9235 8.05099 40.9235 8.45522V23.9089C40.9235 24.3134 40.5957 24.6412 40.1914 24.6412H20.0761C19.4759 25.669 18.8319 26.7324 18.1504 27.8352ZM28.7826 17.3857C29.66 18.9317 28.5248 19.2984 26.58 19.7177C24.77 20.1081 24.7752 20.9661 24.7845 22.4865C24.7851 22.5986 24.7859 22.7143 24.7859 22.8337H37.0001V22.1807C37.0001 20.8494 36.8889 20.0812 35.204 19.7177C33.3006 19.3073 32.1002 18.9406 33.004 17.3857C35.6803 12.7789 33.7674 10.167 30.8937 10.167C28.0756 10.167 26.1145 12.682 28.7826 17.3857Z" fill="currentColor"/>
</svg>
