<svg height="31" viewBox="0 0 31 31" xmlns="http://www.w3.org/2000/svg">
<path d="M30.266 2.99023H0.732329C0.327893 2.99023 0 3.31806 0 3.72249V24.1036C0 24.5078 0.327893 24.8352 0.732329 24.8352H11.8381V26.5916C11.8381 26.6176 11.8432 26.641 11.8458 26.6662H10.2521C9.88161 26.6662 9.58086 26.9669 9.58086 27.3374C9.58086 27.708 9.88161 28.009 10.2521 28.009H21.1138C21.4842 28.009 21.785 27.7083 21.785 27.3374C21.785 26.9669 21.4842 26.6662 21.1138 26.6662H19.5202C19.5224 26.6419 19.5281 26.6176 19.5281 26.5916V24.8352H30.2676C30.6718 24.8352 31 24.5075 31 24.1036V3.72249C30.9988 3.31806 30.6711 2.99023 30.266 2.99023ZM28.9238 20.9089C28.9238 21.3134 28.5959 21.6412 28.1917 21.6412H2.80679C2.40263 21.6412 2.07467 21.3135 2.07467 20.9089V5.45522C2.07467 5.05106 2.40263 4.7231 2.80679 4.7231H28.1917C28.5959 4.7231 28.9238 5.05099 28.9238 5.45522V20.9089Z" fill="currentColor"/>
<path d="M14.5799 16.7177C16.5246 16.2984 17.6599 15.9317 16.7825 14.3857C14.1144 9.68196 16.0754 7.16699 18.8935 7.16699C21.7673 7.16699 23.6802 9.77886 21.0039 14.3857C20.1 15.9406 21.3004 16.3073 23.2038 16.7177C24.8887 17.0812 25 17.8494 25 19.1807V19.8337H12.7857C12.7857 18.0952 12.6364 17.1369 14.5799 16.7177ZM6 19.8337H11.299C11.2752 14.6549 13.6305 16.4688 13.6305 12.7866C13.6305 11.1963 12.5184 10.3337 11.0873 10.3337C8.9735 10.3337 7.50304 12.2204 9.50414 15.748C10.1617 16.907 8.80454 17.1825 7.34561 17.4967C6.08211 17.769 6 18.3453 6 19.3441V19.8337Z" fill="currentColor"/>
</svg>
