<svg viewBox="0 0 20 20" xmlns="http://www.w3.org/2000/svg">
<g fill="currentColor">
<path d="M9.908,4.789C7.101,4.789 4.789,7.101 4.789,9.908C4.789,12.715 7.101,15.027 9.908,15.027C12.715,15.027 15.027,12.715 15.027,9.908C15.027,7.101 12.715,4.789 9.908,4.789ZM9.908,13.128C8.092,13.128 6.688,11.642 6.688,9.908C6.688,8.174 8.174,6.688 9.908,6.688C11.642,6.688 13.128,8.174 13.128,9.908C13.128,11.642 11.724,13.128 9.908,13.128Z"/>
<path d="M15.274,5.367C16.004,5.367 16.595,4.775 16.595,4.046C16.595,3.316 16.004,2.725 15.274,2.725C14.545,2.725 13.953,3.316 13.953,4.046C13.953,4.775 14.545,5.367 15.274,5.367Z"/>
<path d="M14.861,1.486C16.76,1.486 18.329,3.055 18.329,4.954L18.329,14.861C18.329,16.76 16.76,18.329 14.861,18.329L4.954,18.329C3.055,18.329 1.486,16.76 1.486,14.861L1.486,4.954C1.486,3.055 3.055,1.486 4.954,1.486L14.861,1.486ZM14.861,0L4.954,0C2.229,0 0,2.229 0,4.954L0,14.861C0,17.586 2.229,19.815 4.954,19.815L14.861,19.815C17.586,19.815 19.815,17.586 19.815,14.861L19.815,4.954C19.815,2.229 17.586,0 14.861,0Z"/>
</g>
</svg>
