<svg viewBox="0 0 20 20" xmlns="http://www.w3.org/2000/svg">
<path d="M4.823,2.309C4.795,0.998 3.892,0 2.425,0C0.959,0 0,0.998 0,2.309C0,3.593 0.93,4.62 2.37,4.62L2.397,4.62C3.892,4.62 4.823,3.593 4.823,2.309ZM4.54,6.445L0.253,6.445L0.253,19.815L4.54,19.815L4.54,6.445ZM15.064,6.131C17.885,6.131 20,8.043 20,12.149L20,19.815L15.713,19.815L15.713,12.662C15.713,10.865 15.093,9.639 13.541,9.639C12.357,9.639 11.651,10.466 11.341,11.264C11.228,11.55 11.2,11.949 11.2,12.348L11.2,19.815L6.913,19.815C6.913,19.815 6.97,7.7 6.913,6.445L11.2,6.445L11.2,8.339C11.769,7.429 12.788,6.131 15.064,6.131Z" fill="currentColor"/>
</svg>
