<svg viewBox="0 0 20 20" xmlns="http://www.w3.org/2000/svg">
<path d="M19.833,3.899C19.09,4.229 18.347,4.477 17.521,4.559C18.347,4.064 19.007,3.239 19.337,2.33C18.512,2.826 17.686,3.156 16.778,3.321C16.035,2.495 14.961,2 13.806,2C11.576,2 9.76,3.816 9.76,6.046C9.76,6.376 9.76,6.706 9.843,6.954C6.375,6.789 3.402,5.137 1.421,2.661C1.008,3.321 0.843,3.982 0.843,4.725C0.843,6.128 1.586,7.367 2.659,8.11C1.999,8.11 1.338,7.945 0.843,7.614L0.843,7.697C0.843,9.678 2.247,11.33 4.146,11.66C3.815,11.742 3.485,11.825 3.072,11.825C2.825,11.825 2.577,11.825 2.329,11.742C2.825,13.394 4.311,14.55 6.127,14.55C4.723,15.623 2.99,16.283 1.091,16.283C0.761,16.283 0.43,16.283 0.1,16.201C1.916,17.357 4.063,18.017 6.292,18.017C13.806,18.017 17.851,11.825 17.851,6.458L17.851,5.963C18.594,5.385 19.255,4.642 19.833,3.899Z" fill="currentColor"/>
</svg>
